<svg width="40" height="40" viewBox="0 0 40 40" fill="none" xmlns="http://www.w3.org/2000/svg">
<mask id="mask0_3_34" style="mask-type:alpha" maskUnits="userSpaceOnUse" x="0" y="0" width="40" height="40">
<rect width="40" height="40" fill="#D9D9D9"/>
</mask>
<g mask="url(#mask0_3_34)">
<path d="M9.72221 33.3333C8.42593 33.3333 7.31482 32.8704 6.38887 31.9444C5.46296 31.0185 5 29.9074 5 28.6111C5 27.3148 5.46296 26.2037 6.38887 25.2778C7.31482 24.3519 8.42593 23.8889 9.72221 23.8889C11.0185 23.8889 12.1296 24.3519 13.0555 25.2778C13.9815 26.2037 14.4444 27.3148 14.4444 28.6111C14.4444 29.9074 13.9815 31.0185 13.0555 31.9444C12.1296 32.8704 11.0185 33.3333 9.72221 33.3333ZM30.2778 33.3333C28.9815 33.3333 27.8704 32.8704 26.9445 31.9444C26.0185 31.0185 25.5556 29.9074 25.5556 28.6111C25.5556 27.3148 26.0185 26.2037 26.9445 25.2778C27.8704 24.3519 28.9815 23.8889 30.2778 23.8889C31.5926 23.8889 32.7083 24.3519 33.625 25.2778C34.5417 26.2037 35 27.3148 35 28.6111C35 29.9074 34.5417 31.0185 33.625 31.9444C32.7083 32.8704 31.5926 33.3333 30.2778 33.3333ZM20 16.1111C18.7037 16.1111 17.5926 15.6481 16.6667 14.7222C15.7408 13.7963 15.2778 12.6852 15.2778 11.3889C15.2778 10.0926 15.7408 8.98148 16.6667 8.05553C17.5926 7.12962 18.7037 6.66666 20 6.66666C21.2963 6.66666 22.4074 7.12962 23.3333 8.05553C24.2593 8.98148 24.7222 10.0926 24.7222 11.3889C24.7222 12.6852 24.2593 13.7963 23.3333 14.7222C22.4074 15.6481 21.2963 16.1111 20 16.1111Z" fill="#1C1B1F"/>
</g>
</svg>
