<svg width="28" height="28" viewBox="0 0 28 28" fill="none" xmlns="http://www.w3.org/2000/svg">
<mask id="mask0_3_28" style="mask-type:alpha" maskUnits="userSpaceOnUse" x="0" y="0" width="28" height="28">
<rect width="28" height="28" fill="#D9D9D9"/>
</mask>
<g mask="url(#mask0_3_28)">
<path d="M13.0861 19.8333H15.0306V15.05H19.8333V13.1056H15.0306V8.16668H13.0861V13.1056H8.16668V15.05H13.0861V19.8333ZM14.0052 25.6667C12.3947 25.6667 10.8813 25.3604 9.46492 24.7479C8.0485 24.1354 6.81205 23.3009 5.75556 22.2445C4.69908 21.188 3.86459 19.951 3.25209 18.5337C2.63959 17.1163 2.33334 15.6018 2.33334 13.9903C2.33334 12.3787 2.63959 10.8643 3.25209 9.44692C3.86459 8.02954 4.69908 6.79584 5.75556 5.74584C6.81205 4.69584 8.04898 3.86459 9.46634 3.25209C10.8837 2.63959 12.3982 2.33334 14.0097 2.33334C15.6213 2.33334 17.1357 2.63959 18.5531 3.25209C19.9705 3.86459 21.2042 4.69584 22.2542 5.74584C23.3042 6.79584 24.1354 8.03057 24.7479 9.45001C25.3604 10.8695 25.6667 12.3844 25.6667 13.9949C25.6667 15.6053 25.3604 17.1187 24.7479 18.5351C24.1354 19.9515 23.3042 21.1868 22.2542 22.2409C21.2042 23.295 19.9695 24.1295 18.55 24.7443C17.1306 25.3592 15.6156 25.6667 14.0052 25.6667ZM14.0097 23.7223C16.7125 23.7223 19.007 22.776 20.8931 20.8833C22.7792 18.9908 23.7223 16.6931 23.7223 13.9903C23.7223 11.2875 22.7804 8.99307 20.8967 7.10694C19.013 5.22082 16.7141 4.27777 14 4.27777C11.3037 4.27777 9.00926 5.21961 7.11668 7.10329C5.22407 8.98699 4.27777 11.2859 4.27777 14C4.27777 16.6963 5.22407 18.9908 7.11668 20.8833C9.00926 22.776 11.3069 23.7223 14.0097 23.7223Z" fill="#1C1B1F"/>
</g>
</svg>
