<svg width="40" height="40" viewBox="0 0 40 40" fill="none" xmlns="http://www.w3.org/2000/svg">
<mask id="mask0_3_10" style="mask-type:alpha" maskUnits="userSpaceOnUse" x="0" y="0" width="40" height="40">
<rect width="40" height="40" fill="#D9D9D9"/>
</mask>
<g mask="url(#mask0_3_10)">
<path d="M17.5833 27.6111L29.3611 15.8333L27.3055 13.8055L17.5833 23.5278L12.6667 18.6111L10.6389 20.6389L17.5833 27.6111ZM20 36.6667C17.713 36.6667 15.5556 36.2292 13.5278 35.3542C11.5 34.4792 9.73148 33.287 8.2222 31.7778C6.71295 30.2685 5.52083 28.5 4.64583 26.4722C3.77083 24.4444 3.33333 22.287 3.33333 20C3.33333 17.6944 3.77083 15.5278 4.64583 13.5C5.52083 11.4722 6.71295 9.70833 8.2222 8.20833C9.73148 6.70833 11.5 5.52083 13.5278 4.64583C15.5556 3.77083 17.713 3.33333 20 3.33333C22.3056 3.33333 24.4722 3.77083 26.5 4.64583C28.5278 5.52083 30.2917 6.70833 31.7917 8.20833C33.2917 9.70833 34.4792 11.4722 35.3542 13.5C36.2292 15.5278 36.6667 17.6944 36.6667 20C36.6667 22.287 36.2292 24.4444 35.3542 26.4722C34.4792 28.5 33.2917 30.2685 31.7917 31.7778C30.2917 33.287 28.5278 34.4792 26.5 35.3542C24.4722 36.2292 22.3056 36.6667 20 36.6667ZM20 33.8889C23.8704 33.8889 27.1528 32.5371 29.8472 29.8333C32.5417 27.1296 33.8889 23.8519 33.8889 20C33.8889 16.1296 32.5417 12.8472 29.8472 10.1527C27.1528 7.4583 23.8704 6.11108 20 6.11108C16.1481 6.11108 12.8704 7.4583 10.1667 10.1527C7.46294 12.8472 6.11108 16.1296 6.11108 20C6.11108 23.8519 7.46294 27.1296 10.1667 29.8333C12.8704 32.5371 16.1481 33.8889 20 33.8889Z" fill="#1C1B1F"/>
</g>
</svg>
