<svg width="60" height="60" viewBox="0 0 60 60" fill="none" xmlns="http://www.w3.org/2000/svg">
<mask id="mask0_3_46" style="mask-type:alpha" maskUnits="userSpaceOnUse" x="0" y="0" width="60" height="60">
<rect width="60" height="60" fill="#D9D9D9"/>
</mask>
<g mask="url(#mask0_3_46)">
<path d="M15 55V44.25C12.625 42.0833 10.7812 39.5521 9.46875 36.6563C8.15625 33.7604 7.5 30.7083 7.5 27.5C7.5 21.25 9.6875 15.9375 14.0625 11.5625C18.4375 7.1875 23.75 5 30 5C35.2083 5 39.8229 6.53125 43.8438 9.59375C47.8646 12.6563 50.4792 16.6458 51.6875 21.5625L55.0625 34.9167C55.243 35.5694 55.125 36.1632 54.7083 36.6979C54.2916 37.2326 53.7361 37.5 53.0417 37.5H47.5V45.8334C47.5 46.9792 47.092 47.9601 46.2761 48.7761C45.4601 49.592 44.4792 50 43.3334 50H37.5V55H33.3334V45.8334H43.3334V33.3334H50.3334L47.6667 22.6042C46.6806 18.6458 44.5417 15.4166 41.25 12.9166C37.9583 10.4166 34.2083 9.16663 30 9.16663C24.9167 9.16663 20.5903 10.9305 17.0208 14.4583C13.4514 17.9861 11.6666 22.2853 11.6666 27.3558C11.6666 29.9785 12.2024 32.4701 13.2739 34.8306C14.3454 37.191 15.8652 39.2891 17.8333 41.125L19.1666 42.375V55H15ZM30 40C30.7083 40 31.3021 39.7604 31.7812 39.2813C32.2604 38.8021 32.5 38.2083 32.5 37.5C32.5 36.7917 32.2604 36.1979 31.7812 35.7188C31.3021 35.2396 30.7083 35 30 35C29.2917 35 28.6979 35.2396 28.2188 35.7188C27.7396 36.1979 27.5 36.7917 27.5 37.5C27.5 38.2083 27.7396 38.8021 28.2188 39.2813C28.6979 39.7604 29.2917 40 30 40ZM28.125 32H31.9375C31.9375 30.9583 32.0729 30.1146 32.3438 29.4688C32.6146 28.8229 33.1667 28.0417 34 27.125C34.75 26.2917 35.4792 25.4479 36.1875 24.5938C36.8958 23.7396 37.25 22.625 37.25 21.25C37.25 19.5 36.5729 18.0208 35.2188 16.8125C33.8646 15.6042 32.1875 15 30.1875 15C28.5208 15 27.0104 15.4792 25.6562 16.4375C24.3021 17.3958 23.3542 18.6458 22.8125 20.1875L26.25 21.625C26.5417 20.7083 27.0521 19.9688 27.7812 19.4063C28.5104 18.8438 29.3125 18.5625 30.1875 18.5625C31.1042 18.5625 31.8646 18.8125 32.4688 19.3125C33.0729 19.8125 33.375 20.4583 33.375 21.25C33.375 22.125 33.1146 22.9063 32.5938 23.5938C32.0729 24.2813 31.4583 24.9792 30.75 25.6875C29.9167 26.5625 29.2708 27.4375 28.8125 28.3125C28.3542 29.1875 28.125 30.4167 28.125 32Z" fill="#1C1B1F"/>
</g>
</svg>
