<svg width="60" height="60" viewBox="0 0 60 60" fill="none" xmlns="http://www.w3.org/2000/svg">
<mask id="mask0_14_19" style="mask-type:alpha" maskUnits="userSpaceOnUse" x="0" y="0" width="60" height="60">
<rect width="60" height="60" fill="#D9D9D9"/>
</mask>
<g mask="url(#mask0_14_19)">
<path d="M16.2501 53.7499V43.6731C13.8751 41.5064 12.0313 39.0232 10.7188 36.2235C9.40631 33.4238 8.75006 30.5102 8.75006 27.4826C8.75006 21.5847 10.816 16.5715 14.948 12.4429C19.0799 8.31435 24.0972 6.25006 30 6.25006C34.8557 6.25006 39.1979 7.70119 43.0264 10.6034C46.8549 13.5057 49.3412 17.2709 50.4855 21.8991L53.4994 33.8329C53.6589 34.4496 53.5464 35.0066 53.1618 35.5039C52.7771 36.0013 52.2563 36.2499 51.5993 36.2499H46.2499V44.8397C46.2499 45.9067 45.865 46.8252 45.0951 47.5951C44.3252 48.365 43.4067 48.7499 42.3397 48.7499H36.2499V53.7499H33.109V45.609H42.3397C42.5641 45.609 42.7484 45.5369 42.8926 45.3926C43.0369 45.2484 43.109 45.0641 43.109 44.8397V33.109H50.0449L47.4583 22.6522C46.4829 18.7206 44.3627 15.5275 41.0977 13.0729C37.8328 10.6183 34.1335 9.391 30 9.391C24.9786 9.391 20.7051 11.1354 17.1795 14.6243C13.6538 18.1132 11.891 22.365 11.891 27.3799C11.891 29.9771 12.4214 32.438 13.4822 34.7628C14.5431 37.0874 16.0415 39.1502 17.9776 40.9512L19.391 42.2789V53.7499H16.2501ZM29.7587 39.7596C30.3822 39.7596 30.8987 39.5524 31.3084 39.1379C31.7182 38.7234 31.9231 38.2098 31.9231 37.597C31.9231 36.9843 31.7158 36.4704 31.3013 36.0553C30.8868 35.6403 30.3732 35.4328 29.7604 35.4328C29.1477 35.4328 28.6338 35.64 28.2187 36.0545C27.8037 36.469 27.5962 36.9826 27.5962 37.5953C27.5962 38.2081 27.8007 38.722 28.2099 39.137C28.619 39.5521 29.1353 39.7596 29.7587 39.7596ZM28.2933 32.3366H31.3124C31.3124 31.4391 31.4599 30.6595 31.7547 29.9976C32.0496 29.3358 32.6137 28.5545 33.4471 27.6539C34.1811 26.8366 34.8862 26.0089 35.5624 25.1707C36.2387 24.3326 36.5769 23.2821 36.5769 22.0193C36.5769 20.3635 35.9479 18.964 34.6899 17.8208C33.4319 16.6775 31.851 16.1059 29.9471 16.1059C28.4247 16.1059 27.0385 16.5289 25.7885 17.3751C24.5385 18.2212 23.6346 19.335 23.0769 20.7164L25.7932 21.8894C26.149 21.0048 26.7075 20.2933 27.4687 19.7548C28.23 19.2164 29.0561 18.9471 29.9471 18.9471C30.9599 18.9471 31.8085 19.2329 32.4928 19.8045C33.1771 20.376 33.5192 21.1143 33.5192 22.0193C33.5192 22.9264 33.2468 23.7196 32.7019 24.3991C32.1571 25.0786 31.5385 25.7725 30.8462 26.4808C30.0129 27.3398 29.379 28.2068 28.9447 29.0818C28.5105 29.9568 28.2933 31.0417 28.2933 32.3366Z" fill="#1C1B1F"/>
</g>
</svg>
